<mxfile host="app.diagrams.net" agent="Mozilla/5.0 (Windows NT 10.0; Win64; x64) AppleWebKit/537.36 (KHTML, like Gecko) Chrome/136.0.0.0 Safari/537.36" version="27.0.9">
  <diagram name="Page-1" id="R_fm8e3Ls7_IPDj98CVY">
    <mxGraphModel dx="2004" dy="1031" grid="1" gridSize="10" guides="1" tooltips="1" connect="1" arrows="1" fold="1" page="1" pageScale="1" pageWidth="850" pageHeight="1100" math="0" shadow="0">
      <root>
        <mxCell id="0" />
        <mxCell id="1" parent="0" />
        <mxCell id="QHjCxXVR_3IgXgFIltBH-1" value="&lt;span style=&quot;font-weight: 400; text-align: left;&quot;&gt;HideLongShotScoutBot&lt;/span&gt;" style="swimlane;whiteSpace=wrap;html=1;" vertex="1" parent="1">
          <mxGeometry x="30" y="50" width="230" height="260" as="geometry" />
        </mxCell>
        <mxCell id="QHjCxXVR_3IgXgFIltBH-2" value="&lt;div&gt;+HideLongShotScoutBot(const string &amp;amp;name, int x,int y)&lt;/div&gt;&lt;div&gt;&amp;nbsp; &amp;nbsp; : Robot(name,x,y),&lt;/div&gt;&lt;div&gt;&amp;nbsp; &amp;nbsp; &amp;nbsp; GenericRobot(name,x,y),&lt;/div&gt;&lt;div&gt;&amp;nbsp; &amp;nbsp; &amp;nbsp; HideLongShotBot(name,x,y),&lt;/div&gt;&lt;div&gt;&amp;nbsp; &amp;nbsp; &amp;nbsp; ScoutBot(name,x,y) {}&lt;/div&gt;&lt;div&gt;+void move() override&lt;/div&gt;&lt;div&gt;+void fire() override&lt;/div&gt;&lt;div&gt;+void think() override&lt;/div&gt;&lt;div&gt;+void act() override&lt;/div&gt;&lt;div&gt;+void look(int X,int Y) override&lt;/div&gt;&lt;div&gt;+bool isHit() override&lt;/div&gt;&lt;div&gt;+void setBattlefield(Battlefield *bf)&lt;/div&gt;&lt;div&gt;&lt;br&gt;&lt;/div&gt;" style="text;html=1;align=left;verticalAlign=middle;whiteSpace=wrap;rounded=0;" vertex="1" parent="QHjCxXVR_3IgXgFIltBH-1">
          <mxGeometry x="10" y="120" width="220" height="30" as="geometry" />
        </mxCell>
        <mxCell id="QHjCxXVR_3IgXgFIltBH-3" value="&lt;span style=&quot;font-weight: 400; text-align: left;&quot;&gt;HideSemiAutoScoutBot&lt;/span&gt;" style="swimlane;whiteSpace=wrap;html=1;" vertex="1" parent="1">
          <mxGeometry x="320" y="50" width="230" height="260" as="geometry" />
        </mxCell>
        <mxCell id="QHjCxXVR_3IgXgFIltBH-4" value="&lt;div&gt;+HideSemiAutoScoutBot(const string &amp;amp;name, int x,int y)&lt;/div&gt;&lt;div&gt;&amp;nbsp; &amp;nbsp; : Robot(name,x,y),&lt;/div&gt;&lt;div&gt;&amp;nbsp; &amp;nbsp; &amp;nbsp; GenericRobot(name,x,y),&lt;/div&gt;&lt;div&gt;&amp;nbsp; &amp;nbsp; &amp;nbsp; HideSemiAutotBot(name,x,y),&lt;/div&gt;&lt;div&gt;&amp;nbsp; &amp;nbsp; &amp;nbsp; ScoutBot(name,x,y) {}&lt;/div&gt;&lt;div&gt;+void move() override&lt;/div&gt;&lt;div&gt;+void fire() override&lt;/div&gt;&lt;div&gt;+void think() override&lt;/div&gt;&lt;div&gt;+void act() override&lt;/div&gt;&lt;div&gt;+void look(int X,int Y) override&lt;/div&gt;&lt;div&gt;+bool isHit() override&lt;/div&gt;&lt;div&gt;+void setBattlefield(Battlefield *bf)&lt;/div&gt;&lt;div&gt;&lt;br&gt;&lt;/div&gt;" style="text;html=1;align=left;verticalAlign=middle;whiteSpace=wrap;rounded=0;" vertex="1" parent="QHjCxXVR_3IgXgFIltBH-3">
          <mxGeometry x="10" y="120" width="220" height="30" as="geometry" />
        </mxCell>
        <mxCell id="QHjCxXVR_3IgXgFIltBH-5" value="&lt;span style=&quot;font-weight: 400; text-align: left;&quot;&gt;HideThirtyShotScoutBot&lt;/span&gt;" style="swimlane;whiteSpace=wrap;html=1;" vertex="1" parent="1">
          <mxGeometry x="590" y="50" width="230" height="260" as="geometry" />
        </mxCell>
        <mxCell id="QHjCxXVR_3IgXgFIltBH-6" value="&lt;div&gt;+HideThirtyShotScoutBot(const string &amp;amp;name, int x,int y)&lt;/div&gt;&lt;div&gt;&amp;nbsp; &amp;nbsp; : Robot(name,x,y),&lt;/div&gt;&lt;div&gt;&amp;nbsp; &amp;nbsp; &amp;nbsp; GenericRobot(name,x,y),&lt;/div&gt;&lt;div&gt;&amp;nbsp; &amp;nbsp; &amp;nbsp; HideThirtyShotBot(name,x,y),&lt;/div&gt;&lt;div&gt;&amp;nbsp; &amp;nbsp; &amp;nbsp; ScoutBot(name,x,y) {}&lt;/div&gt;&lt;div&gt;+void move() override&lt;/div&gt;&lt;div&gt;+void fire() override&lt;/div&gt;&lt;div&gt;+void think() override&lt;/div&gt;&lt;div&gt;+void act() override&lt;/div&gt;&lt;div&gt;+void look(int X,int Y) override&lt;/div&gt;&lt;div&gt;+bool isHit() override&lt;/div&gt;&lt;div&gt;+void setBattlefield(Battlefield *bf)&lt;/div&gt;&lt;div&gt;&lt;br&gt;&lt;/div&gt;" style="text;html=1;align=left;verticalAlign=middle;whiteSpace=wrap;rounded=0;" vertex="1" parent="QHjCxXVR_3IgXgFIltBH-5">
          <mxGeometry x="10" y="120" width="220" height="30" as="geometry" />
        </mxCell>
        <mxCell id="QHjCxXVR_3IgXgFIltBH-7" value="&lt;span style=&quot;font-weight: 400; text-align: left;&quot;&gt;HideKnightScoutBot&lt;/span&gt;" style="swimlane;whiteSpace=wrap;html=1;" vertex="1" parent="1">
          <mxGeometry x="860" y="50" width="230" height="260" as="geometry" />
        </mxCell>
        <mxCell id="QHjCxXVR_3IgXgFIltBH-8" value="&lt;div&gt;+HideKnightScoutBot(const string &amp;amp;name, int x,int y)&lt;/div&gt;&lt;div&gt;&amp;nbsp; &amp;nbsp; : Robot(name,x,y),&lt;/div&gt;&lt;div&gt;&amp;nbsp; &amp;nbsp; &amp;nbsp; GenericRobot(name,x,y),&lt;/div&gt;&lt;div&gt;&amp;nbsp; &amp;nbsp; &amp;nbsp; HideKnightBot(name,x,y),&lt;/div&gt;&lt;div&gt;&amp;nbsp; &amp;nbsp; &amp;nbsp; ScoutBot(name,x,y) {}&lt;/div&gt;&lt;div&gt;+void move() override&lt;/div&gt;&lt;div&gt;+void fire() override&lt;/div&gt;&lt;div&gt;+void think() override&lt;/div&gt;&lt;div&gt;+void act() override&lt;/div&gt;&lt;div&gt;+void look(int X,int Y) override&lt;/div&gt;&lt;div&gt;+bool isHit() override&lt;/div&gt;&lt;div&gt;+void setBattlefield(Battlefield *bf)&lt;/div&gt;&lt;div&gt;&lt;br&gt;&lt;/div&gt;" style="text;html=1;align=left;verticalAlign=middle;whiteSpace=wrap;rounded=0;" vertex="1" parent="QHjCxXVR_3IgXgFIltBH-7">
          <mxGeometry x="10" y="120" width="220" height="30" as="geometry" />
        </mxCell>
        <mxCell id="QHjCxXVR_3IgXgFIltBH-9" value="&lt;span style=&quot;font-weight: 400; text-align: left;&quot;&gt;HideQueenScoutBot&lt;/span&gt;" style="swimlane;whiteSpace=wrap;html=1;" vertex="1" parent="1">
          <mxGeometry x="1130" y="50" width="230" height="260" as="geometry" />
        </mxCell>
        <mxCell id="QHjCxXVR_3IgXgFIltBH-10" value="&lt;div&gt;+HideQueenScoutBot(const string &amp;amp;name, int x,int y)&lt;/div&gt;&lt;div&gt;&amp;nbsp; &amp;nbsp; : Robot(name,x,y),&lt;/div&gt;&lt;div&gt;&amp;nbsp; &amp;nbsp; &amp;nbsp; GenericRobot(name,x,y),&lt;/div&gt;&lt;div&gt;&amp;nbsp; &amp;nbsp; &amp;nbsp; HideQueenBot(name,x,y),&lt;/div&gt;&lt;div&gt;&amp;nbsp; &amp;nbsp; &amp;nbsp; ScoutBot(name,x,y) {}&lt;/div&gt;&lt;div&gt;+void move() override&lt;/div&gt;&lt;div&gt;+void fire() override&lt;/div&gt;&lt;div&gt;+void think() override&lt;/div&gt;&lt;div&gt;+void act() override&lt;/div&gt;&lt;div&gt;+void look(int X,int Y) override&lt;/div&gt;&lt;div&gt;+bool isHit() override&lt;/div&gt;&lt;div&gt;+void setBattlefield(Battlefield *bf)&lt;/div&gt;&lt;div&gt;&lt;br&gt;&lt;/div&gt;" style="text;html=1;align=left;verticalAlign=middle;whiteSpace=wrap;rounded=0;" vertex="1" parent="QHjCxXVR_3IgXgFIltBH-9">
          <mxGeometry x="10" y="120" width="220" height="30" as="geometry" />
        </mxCell>
        <mxCell id="QHjCxXVR_3IgXgFIltBH-11" value="&lt;span style=&quot;font-weight: 400; text-align: left;&quot;&gt;HideVampireScoutBot&lt;/span&gt;" style="swimlane;whiteSpace=wrap;html=1;" vertex="1" parent="1">
          <mxGeometry x="30" y="400" width="230" height="260" as="geometry" />
        </mxCell>
        <mxCell id="QHjCxXVR_3IgXgFIltBH-12" value="&lt;div&gt;+HideVampireScoutBot(const string &amp;amp;name, int x,int y)&lt;/div&gt;&lt;div&gt;&amp;nbsp; &amp;nbsp; : Robot(name,x,y),&lt;/div&gt;&lt;div&gt;&amp;nbsp; &amp;nbsp; &amp;nbsp; GenericRobot(name,x,y),&lt;/div&gt;&lt;div&gt;&amp;nbsp; &amp;nbsp; &amp;nbsp; HideVampireBot(name,x,y),&lt;/div&gt;&lt;div&gt;&amp;nbsp; &amp;nbsp; &amp;nbsp; ScoutBot(name,x,y) {}&lt;/div&gt;&lt;div&gt;+void move() override&lt;/div&gt;&lt;div&gt;+void fire() override&lt;/div&gt;&lt;div&gt;+void think() override&lt;/div&gt;&lt;div&gt;+void act() override&lt;/div&gt;&lt;div&gt;+void look(int X,int Y) override&lt;/div&gt;&lt;div&gt;+bool isHit() override&lt;/div&gt;&lt;div&gt;+void setBattlefield(Battlefield *bf)&lt;/div&gt;&lt;div&gt;&lt;br&gt;&lt;/div&gt;" style="text;html=1;align=left;verticalAlign=middle;whiteSpace=wrap;rounded=0;" vertex="1" parent="QHjCxXVR_3IgXgFIltBH-11">
          <mxGeometry x="10" y="120" width="220" height="30" as="geometry" />
        </mxCell>
        <mxCell id="QHjCxXVR_3IgXgFIltBH-13" value="&lt;span style=&quot;font-weight: 400; text-align: left;&quot;&gt;HideLongShotTrackBot&lt;/span&gt;" style="swimlane;whiteSpace=wrap;html=1;" vertex="1" parent="1">
          <mxGeometry x="320" y="400" width="230" height="260" as="geometry" />
        </mxCell>
        <mxCell id="QHjCxXVR_3IgXgFIltBH-14" value="&lt;div&gt;+HideLongShotTrackBot(const string &amp;amp;name, int x,int y)&lt;/div&gt;&lt;div&gt;&amp;nbsp; &amp;nbsp; : Robot(name,x,y),&lt;/div&gt;&lt;div&gt;&amp;nbsp; &amp;nbsp; &amp;nbsp; GenericRobot(name,x,y),&lt;/div&gt;&lt;div&gt;&amp;nbsp; &amp;nbsp; &amp;nbsp; HideLongShotBot(name,x,y),&lt;/div&gt;&lt;div&gt;&amp;nbsp; &amp;nbsp; &amp;nbsp; TrackBot(name,x,y) {}&lt;/div&gt;&lt;div&gt;+void move() override&lt;/div&gt;&lt;div&gt;+void fire() override&lt;/div&gt;&lt;div&gt;+void think() override&lt;/div&gt;&lt;div&gt;+void act() override&lt;/div&gt;&lt;div&gt;+void look(int X,int Y) override&lt;/div&gt;&lt;div&gt;+bool isHit() override&lt;/div&gt;&lt;div&gt;+void setBattlefield(Battlefield *bf)&lt;/div&gt;&lt;div&gt;&lt;br&gt;&lt;/div&gt;" style="text;html=1;align=left;verticalAlign=middle;whiteSpace=wrap;rounded=0;" vertex="1" parent="QHjCxXVR_3IgXgFIltBH-13">
          <mxGeometry x="10" y="120" width="220" height="30" as="geometry" />
        </mxCell>
        <mxCell id="QHjCxXVR_3IgXgFIltBH-15" value="&lt;span style=&quot;font-weight: 400; text-align: left;&quot;&gt;HideSemiAutoTrackBot&lt;/span&gt;" style="swimlane;whiteSpace=wrap;html=1;" vertex="1" parent="1">
          <mxGeometry x="590" y="400" width="230" height="260" as="geometry" />
        </mxCell>
        <mxCell id="QHjCxXVR_3IgXgFIltBH-16" value="&lt;div&gt;+HideSemiAutoTrackBot(const string &amp;amp;name, int x,int y)&lt;/div&gt;&lt;div&gt;&amp;nbsp; &amp;nbsp; : Robot(name,x,y),&lt;/div&gt;&lt;div&gt;&amp;nbsp; &amp;nbsp; &amp;nbsp; GenericRobot(name,x,y),&lt;/div&gt;&lt;div&gt;&amp;nbsp; &amp;nbsp; &amp;nbsp; HideSemiAutoBot(name,x,y),&lt;/div&gt;&lt;div&gt;&amp;nbsp; &amp;nbsp; &amp;nbsp; TrackBot(name,x,y) {}&lt;/div&gt;&lt;div&gt;+void move() override&lt;/div&gt;&lt;div&gt;+void fire() override&lt;/div&gt;&lt;div&gt;+void think() override&lt;/div&gt;&lt;div&gt;+void act() override&lt;/div&gt;&lt;div&gt;+void look(int X,int Y) override&lt;/div&gt;&lt;div&gt;+bool isHit() override&lt;/div&gt;&lt;div&gt;+void setBattlefield(Battlefield *bf)&lt;/div&gt;&lt;div&gt;&lt;br&gt;&lt;/div&gt;" style="text;html=1;align=left;verticalAlign=middle;whiteSpace=wrap;rounded=0;" vertex="1" parent="QHjCxXVR_3IgXgFIltBH-15">
          <mxGeometry x="10" y="120" width="220" height="30" as="geometry" />
        </mxCell>
        <mxCell id="QHjCxXVR_3IgXgFIltBH-17" value="&lt;span style=&quot;font-weight: 400; text-align: left;&quot;&gt;HideThirtyShotTrackBot&lt;/span&gt;" style="swimlane;whiteSpace=wrap;html=1;" vertex="1" parent="1">
          <mxGeometry x="860" y="400" width="230" height="260" as="geometry" />
        </mxCell>
        <mxCell id="QHjCxXVR_3IgXgFIltBH-18" value="&lt;div&gt;+HideThirtyShotTrackBot(const string &amp;amp;name, int x,int y)&lt;/div&gt;&lt;div&gt;&amp;nbsp; &amp;nbsp; : Robot(name,x,y),&lt;/div&gt;&lt;div&gt;&amp;nbsp; &amp;nbsp; &amp;nbsp; GenericRobot(name,x,y),&lt;/div&gt;&lt;div&gt;&amp;nbsp; &amp;nbsp; &amp;nbsp; HideThirtyShotBot(name,x,y),&lt;/div&gt;&lt;div&gt;&amp;nbsp; &amp;nbsp; &amp;nbsp; TrackBot(name,x,y) {}&lt;/div&gt;&lt;div&gt;+void move() override&lt;/div&gt;&lt;div&gt;+void fire() override&lt;/div&gt;&lt;div&gt;+void think() override&lt;/div&gt;&lt;div&gt;+void act() override&lt;/div&gt;&lt;div&gt;+void look(int X,int Y) override&lt;/div&gt;&lt;div&gt;+bool isHit() override&lt;/div&gt;&lt;div&gt;+void setBattlefield(Battlefield *bf)&lt;/div&gt;&lt;div&gt;&lt;br&gt;&lt;/div&gt;" style="text;html=1;align=left;verticalAlign=middle;whiteSpace=wrap;rounded=0;" vertex="1" parent="QHjCxXVR_3IgXgFIltBH-17">
          <mxGeometry x="10" y="120" width="220" height="30" as="geometry" />
        </mxCell>
        <mxCell id="QHjCxXVR_3IgXgFIltBH-19" value="&lt;span style=&quot;font-weight: 400; text-align: left;&quot;&gt;HideKnightTrackBot&lt;/span&gt;" style="swimlane;whiteSpace=wrap;html=1;" vertex="1" parent="1">
          <mxGeometry x="1130" y="400" width="230" height="260" as="geometry" />
        </mxCell>
        <mxCell id="QHjCxXVR_3IgXgFIltBH-20" value="&lt;div&gt;+HideKnightTrackBot(const string &amp;amp;name, int x,int y)&lt;/div&gt;&lt;div&gt;&amp;nbsp; &amp;nbsp; : Robot(name,x,y),&lt;/div&gt;&lt;div&gt;&amp;nbsp; &amp;nbsp; &amp;nbsp; GenericRobot(name,x,y),&lt;/div&gt;&lt;div&gt;&amp;nbsp; &amp;nbsp; &amp;nbsp; HideKnightBot(name,x,y),&lt;/div&gt;&lt;div&gt;&amp;nbsp; &amp;nbsp; &amp;nbsp; TrackBot(name,x,y) {}&lt;/div&gt;&lt;div&gt;+void move() override&lt;/div&gt;&lt;div&gt;+void fire() override&lt;/div&gt;&lt;div&gt;+void think() override&lt;/div&gt;&lt;div&gt;+void act() override&lt;/div&gt;&lt;div&gt;+void look(int X,int Y) override&lt;/div&gt;&lt;div&gt;+bool isHit() override&lt;/div&gt;&lt;div&gt;+void setBattlefield(Battlefield *bf)&lt;/div&gt;&lt;div&gt;&lt;br&gt;&lt;/div&gt;" style="text;html=1;align=left;verticalAlign=middle;whiteSpace=wrap;rounded=0;" vertex="1" parent="QHjCxXVR_3IgXgFIltBH-19">
          <mxGeometry x="10" y="120" width="220" height="30" as="geometry" />
        </mxCell>
        <mxCell id="QHjCxXVR_3IgXgFIltBH-21" value="&lt;span style=&quot;font-weight: 400; text-align: left;&quot;&gt;HideQueenTrackBot&lt;/span&gt;" style="swimlane;whiteSpace=wrap;html=1;" vertex="1" parent="1">
          <mxGeometry x="40" y="730" width="230" height="260" as="geometry" />
        </mxCell>
        <mxCell id="QHjCxXVR_3IgXgFIltBH-22" value="&lt;div&gt;+HideQueenTrackBot(const string &amp;amp;name, int x,int y)&lt;/div&gt;&lt;div&gt;&amp;nbsp; &amp;nbsp; : Robot(name,x,y),&lt;/div&gt;&lt;div&gt;&amp;nbsp; &amp;nbsp; &amp;nbsp; GenericRobot(name,x,y),&lt;/div&gt;&lt;div&gt;&amp;nbsp; &amp;nbsp; &amp;nbsp; HideQueenBot(name,x,y),&lt;/div&gt;&lt;div&gt;&amp;nbsp; &amp;nbsp; &amp;nbsp; TrackBot(name,x,y) {}&lt;/div&gt;&lt;div&gt;+void move() override&lt;/div&gt;&lt;div&gt;+void fire() override&lt;/div&gt;&lt;div&gt;+void think() override&lt;/div&gt;&lt;div&gt;+void act() override&lt;/div&gt;&lt;div&gt;+void look(int X,int Y) override&lt;/div&gt;&lt;div&gt;+bool isHit() override&lt;/div&gt;&lt;div&gt;+void setBattlefield(Battlefield *bf)&lt;/div&gt;&lt;div&gt;&lt;br&gt;&lt;/div&gt;" style="text;html=1;align=left;verticalAlign=middle;whiteSpace=wrap;rounded=0;" vertex="1" parent="QHjCxXVR_3IgXgFIltBH-21">
          <mxGeometry x="10" y="120" width="220" height="30" as="geometry" />
        </mxCell>
        <mxCell id="QHjCxXVR_3IgXgFIltBH-23" value="&lt;blockquote style=&quot;margin: 0 0 0 40px; border: none; padding: 0px;&quot;&gt;&lt;span style=&quot;font-weight: 400;&quot;&gt;HideVampireTrackBot&lt;/span&gt;&lt;/blockquote&gt;" style="swimlane;whiteSpace=wrap;html=1;align=left;" vertex="1" parent="1">
          <mxGeometry x="330" y="730" width="230" height="260" as="geometry" />
        </mxCell>
        <mxCell id="QHjCxXVR_3IgXgFIltBH-24" value="&lt;div&gt;+HideVampireTrackBot(const string &amp;amp;name, int x,int y)&lt;/div&gt;&lt;div&gt;&amp;nbsp; &amp;nbsp; : Robot(name,x,y),&lt;/div&gt;&lt;div&gt;&amp;nbsp; &amp;nbsp; &amp;nbsp; GenericRobot(name,x,y),&lt;/div&gt;&lt;div&gt;&amp;nbsp; &amp;nbsp; &amp;nbsp; HideVampireBot(name,x,y),&lt;/div&gt;&lt;div&gt;&amp;nbsp; &amp;nbsp; &amp;nbsp; TrackBot(name,x,y) {}&lt;/div&gt;&lt;div&gt;+void move() override&lt;/div&gt;&lt;div&gt;+void fire() override&lt;/div&gt;&lt;div&gt;+void think() override&lt;/div&gt;&lt;div&gt;+void act() override&lt;/div&gt;&lt;div&gt;+void look(int X,int Y) override&lt;/div&gt;&lt;div&gt;+bool isHit() override&lt;/div&gt;&lt;div&gt;+void setBattlefield(Battlefield *bf)&lt;/div&gt;&lt;div&gt;&lt;br&gt;&lt;/div&gt;" style="text;html=1;align=left;verticalAlign=middle;whiteSpace=wrap;rounded=0;" vertex="1" parent="QHjCxXVR_3IgXgFIltBH-23">
          <mxGeometry x="10" y="120" width="220" height="30" as="geometry" />
        </mxCell>
        <mxCell id="QHjCxXVR_3IgXgFIltBH-25" value="&lt;span style=&quot;font-weight: 400; text-align: left;&quot;&gt;JumpLongShotScoutBot&lt;/span&gt;" style="swimlane;whiteSpace=wrap;html=1;" vertex="1" parent="1">
          <mxGeometry x="600" y="730" width="230" height="260" as="geometry" />
        </mxCell>
        <mxCell id="QHjCxXVR_3IgXgFIltBH-26" value="&lt;div&gt;+JumpLongShotScoutBot(const string &amp;amp;name, int x,int y)&lt;/div&gt;&lt;div&gt;&amp;nbsp; &amp;nbsp; : Robot(name,x,y),&lt;/div&gt;&lt;div&gt;&amp;nbsp; &amp;nbsp; &amp;nbsp; GenericRobot(name,x,y),&lt;/div&gt;&lt;div&gt;&amp;nbsp; &amp;nbsp; &amp;nbsp; JumpLongShotBot(name,x,y),&lt;/div&gt;&lt;div&gt;&amp;nbsp; &amp;nbsp; &amp;nbsp; ScoutBot(name,x,y) {}&lt;/div&gt;&lt;div&gt;+void move() override&lt;/div&gt;&lt;div&gt;+void fire() override&lt;/div&gt;&lt;div&gt;+void think() override&lt;/div&gt;&lt;div&gt;+void act() override&lt;/div&gt;&lt;div&gt;+void look(int X,int Y) override&lt;/div&gt;&lt;div&gt;+bool isHit() override&lt;/div&gt;&lt;div&gt;+void setBattlefield(Battlefield *bf)&lt;/div&gt;&lt;div&gt;&lt;br&gt;&lt;/div&gt;" style="text;html=1;align=left;verticalAlign=middle;whiteSpace=wrap;rounded=0;" vertex="1" parent="QHjCxXVR_3IgXgFIltBH-25">
          <mxGeometry x="10" y="120" width="220" height="30" as="geometry" />
        </mxCell>
        <mxCell id="QHjCxXVR_3IgXgFIltBH-27" value="&lt;span style=&quot;font-weight: 400; text-align: left;&quot;&gt;JumpSemiAutoScoutBot&lt;/span&gt;" style="swimlane;whiteSpace=wrap;html=1;" vertex="1" parent="1">
          <mxGeometry x="870" y="730" width="230" height="260" as="geometry" />
        </mxCell>
        <mxCell id="QHjCxXVR_3IgXgFIltBH-28" value="&lt;div&gt;+JumpSemiAutoScoutBot(const string &amp;amp;name, int x,int y)&lt;/div&gt;&lt;div&gt;&amp;nbsp; &amp;nbsp; : Robot(name,x,y),&lt;/div&gt;&lt;div&gt;&amp;nbsp; &amp;nbsp; &amp;nbsp; GenericRobot(name,x,y),&lt;/div&gt;&lt;div&gt;&amp;nbsp; &amp;nbsp; &amp;nbsp; JumpSemiAutoBot(name,x,y),&lt;/div&gt;&lt;div&gt;&amp;nbsp; &amp;nbsp; &amp;nbsp; ScoutBot(name,x,y) {}&lt;/div&gt;&lt;div&gt;+void move() override&lt;/div&gt;&lt;div&gt;+void fire() override&lt;/div&gt;&lt;div&gt;+void think() override&lt;/div&gt;&lt;div&gt;+void act() override&lt;/div&gt;&lt;div&gt;+void look(int X,int Y) override&lt;/div&gt;&lt;div&gt;+bool isHit() override&lt;/div&gt;&lt;div&gt;+void setBattlefield(Battlefield *bf)&lt;/div&gt;&lt;div&gt;&lt;br&gt;&lt;/div&gt;" style="text;html=1;align=left;verticalAlign=middle;whiteSpace=wrap;rounded=0;" vertex="1" parent="QHjCxXVR_3IgXgFIltBH-27">
          <mxGeometry x="10" y="120" width="220" height="30" as="geometry" />
        </mxCell>
        <mxCell id="QHjCxXVR_3IgXgFIltBH-29" value="&lt;span style=&quot;font-weight: 400; text-align: left;&quot;&gt;JumpThirtyShotScoutBot&lt;/span&gt;" style="swimlane;whiteSpace=wrap;html=1;" vertex="1" parent="1">
          <mxGeometry x="1140" y="730" width="230" height="260" as="geometry" />
        </mxCell>
        <mxCell id="QHjCxXVR_3IgXgFIltBH-30" value="&lt;div&gt;+JumpThirtyShotScoutBot(const string &amp;amp;name, int x,int y)&lt;/div&gt;&lt;div&gt;&amp;nbsp; &amp;nbsp; : Robot(name,x,y),&lt;/div&gt;&lt;div&gt;&amp;nbsp; &amp;nbsp; &amp;nbsp; GenericRobot(name,x,y),&lt;/div&gt;&lt;div&gt;&amp;nbsp; &amp;nbsp; &amp;nbsp; JumpThirtyShotBot(name,x,y),&lt;/div&gt;&lt;div&gt;&amp;nbsp; &amp;nbsp; &amp;nbsp; ScoutBot(name,x,y) {}&lt;/div&gt;&lt;div&gt;+void move() override&lt;/div&gt;&lt;div&gt;+void fire() override&lt;/div&gt;&lt;div&gt;+void think() override&lt;/div&gt;&lt;div&gt;+void act() override&lt;/div&gt;&lt;div&gt;+void look(int X,int Y) override&lt;/div&gt;&lt;div&gt;+bool isHit() override&lt;/div&gt;&lt;div&gt;+void setBattlefield(Battlefield *bf)&lt;/div&gt;&lt;div&gt;&lt;br&gt;&lt;/div&gt;" style="text;html=1;align=left;verticalAlign=middle;whiteSpace=wrap;rounded=0;" vertex="1" parent="QHjCxXVR_3IgXgFIltBH-29">
          <mxGeometry x="10" y="120" width="220" height="30" as="geometry" />
        </mxCell>
        <mxCell id="QHjCxXVR_3IgXgFIltBH-31" value="&lt;span style=&quot;font-weight: 400; text-align: left;&quot;&gt;JumpKnightScoutBot&lt;/span&gt;" style="swimlane;whiteSpace=wrap;html=1;" vertex="1" parent="1">
          <mxGeometry x="50" y="1080" width="230" height="260" as="geometry" />
        </mxCell>
        <mxCell id="QHjCxXVR_3IgXgFIltBH-32" value="&lt;div&gt;+JumpKnightScoutBot(const string &amp;amp;name, int x,int y)&lt;/div&gt;&lt;div&gt;&amp;nbsp; &amp;nbsp; : Robot(name,x,y),&lt;/div&gt;&lt;div&gt;&amp;nbsp; &amp;nbsp; &amp;nbsp; GenericRobot(name,x,y),&lt;/div&gt;&lt;div&gt;&amp;nbsp; &amp;nbsp; &amp;nbsp; JumpKnightBot(name,x,y),&lt;/div&gt;&lt;div&gt;&amp;nbsp; &amp;nbsp; &amp;nbsp; ScoutBot(name,x,y) {}&lt;/div&gt;&lt;div&gt;+void move() override&lt;/div&gt;&lt;div&gt;+void fire() override&lt;/div&gt;&lt;div&gt;+void think() override&lt;/div&gt;&lt;div&gt;+void act() override&lt;/div&gt;&lt;div&gt;+void look(int X,int Y) override&lt;/div&gt;&lt;div&gt;+bool isHit() override&lt;/div&gt;&lt;div&gt;+void setBattlefield(Battlefield *bf)&lt;/div&gt;&lt;div&gt;&lt;br&gt;&lt;/div&gt;" style="text;html=1;align=left;verticalAlign=middle;whiteSpace=wrap;rounded=0;" vertex="1" parent="QHjCxXVR_3IgXgFIltBH-31">
          <mxGeometry x="10" y="120" width="220" height="30" as="geometry" />
        </mxCell>
        <mxCell id="QHjCxXVR_3IgXgFIltBH-33" value="&lt;span style=&quot;font-weight: 400; text-align: left;&quot;&gt;JumpQueenScoutBot&lt;/span&gt;" style="swimlane;whiteSpace=wrap;html=1;" vertex="1" parent="1">
          <mxGeometry x="340" y="1080" width="230" height="260" as="geometry" />
        </mxCell>
        <mxCell id="QHjCxXVR_3IgXgFIltBH-34" value="&lt;div&gt;+JumpQueenScoutBot(const string &amp;amp;name, int x,int y)&lt;/div&gt;&lt;div&gt;&amp;nbsp; &amp;nbsp; : Robot(name,x,y),&lt;/div&gt;&lt;div&gt;&amp;nbsp; &amp;nbsp; &amp;nbsp; GenericRobot(name,x,y),&lt;/div&gt;&lt;div&gt;&amp;nbsp; &amp;nbsp; &amp;nbsp; JumpQueenBot(name,x,y),&lt;/div&gt;&lt;div&gt;&amp;nbsp; &amp;nbsp; &amp;nbsp; ScoutBot(name,x,y) {}&lt;/div&gt;&lt;div&gt;+void move() override&lt;/div&gt;&lt;div&gt;+void fire() override&lt;/div&gt;&lt;div&gt;+void think() override&lt;/div&gt;&lt;div&gt;+void act() override&lt;/div&gt;&lt;div&gt;+void look(int X,int Y) override&lt;/div&gt;&lt;div&gt;+bool isHit() override&lt;/div&gt;&lt;div&gt;+void setBattlefield(Battlefield *bf)&lt;/div&gt;&lt;div&gt;&lt;br&gt;&lt;/div&gt;" style="text;html=1;align=left;verticalAlign=middle;whiteSpace=wrap;rounded=0;" vertex="1" parent="QHjCxXVR_3IgXgFIltBH-33">
          <mxGeometry x="10" y="120" width="220" height="30" as="geometry" />
        </mxCell>
        <mxCell id="QHjCxXVR_3IgXgFIltBH-35" value="&lt;div style=&quot;text-align: left;&quot;&gt;&lt;span style=&quot;background-color: transparent; color: light-dark(rgb(0, 0, 0), rgb(255, 255, 255)); font-weight: 400;&quot;&gt;JumpVampireScoutBot&lt;/span&gt;&lt;/div&gt;" style="swimlane;whiteSpace=wrap;html=1;" vertex="1" parent="1">
          <mxGeometry x="610" y="1080" width="230" height="260" as="geometry" />
        </mxCell>
        <mxCell id="QHjCxXVR_3IgXgFIltBH-36" value="&lt;div&gt;+JumpVampireScoutBot(const string &amp;amp;name, int x,int y)&lt;/div&gt;&lt;div&gt;&amp;nbsp; &amp;nbsp; : Robot(name,x,y),&lt;/div&gt;&lt;div&gt;&amp;nbsp; &amp;nbsp; &amp;nbsp; GenericRobot(name,x,y),&lt;/div&gt;&lt;div&gt;&amp;nbsp; &amp;nbsp; &amp;nbsp; JumpVampireBot(name,x,y),&lt;/div&gt;&lt;div&gt;&amp;nbsp; &amp;nbsp; &amp;nbsp; ScoutBot(name,x,y) {}&lt;/div&gt;&lt;div&gt;+void move() override&lt;/div&gt;&lt;div&gt;+void fire() override&lt;/div&gt;&lt;div&gt;+void think() override&lt;/div&gt;&lt;div&gt;+void act() override&lt;/div&gt;&lt;div&gt;+void look(int X,int Y) override&lt;/div&gt;&lt;div&gt;+bool isHit() override&lt;/div&gt;&lt;div&gt;+void setBattlefield(Battlefield *bf)&lt;/div&gt;&lt;div&gt;&lt;br&gt;&lt;/div&gt;" style="text;html=1;align=left;verticalAlign=middle;whiteSpace=wrap;rounded=0;" vertex="1" parent="QHjCxXVR_3IgXgFIltBH-35">
          <mxGeometry x="10" y="120" width="220" height="30" as="geometry" />
        </mxCell>
        <mxCell id="QHjCxXVR_3IgXgFIltBH-37" value="&lt;span style=&quot;font-weight: 400; text-align: left;&quot;&gt;JumpLongShotTrackBot&lt;/span&gt;" style="swimlane;whiteSpace=wrap;html=1;" vertex="1" parent="1">
          <mxGeometry x="880" y="1080" width="230" height="260" as="geometry" />
        </mxCell>
        <mxCell id="QHjCxXVR_3IgXgFIltBH-38" value="&lt;div&gt;+JumpLongShotTracktBot(const string &amp;amp;name, int x,int y)&lt;/div&gt;&lt;div&gt;&amp;nbsp; &amp;nbsp; : Robot(name,x,y),&lt;/div&gt;&lt;div&gt;&amp;nbsp; &amp;nbsp; &amp;nbsp; GenericRobot(name,x,y),&lt;/div&gt;&lt;div&gt;&amp;nbsp; &amp;nbsp; &amp;nbsp;JumpLongShotBot(name,x,y),&lt;/div&gt;&lt;div&gt;&amp;nbsp; &amp;nbsp; &amp;nbsp; TrackBot(name,x,y) {}&lt;/div&gt;&lt;div&gt;+void move() override&lt;/div&gt;&lt;div&gt;+void fire() override&lt;/div&gt;&lt;div&gt;+void think() override&lt;/div&gt;&lt;div&gt;+void act() override&lt;/div&gt;&lt;div&gt;+void look(int X,int Y) override&lt;/div&gt;&lt;div&gt;+bool isHit() override&lt;/div&gt;&lt;div&gt;+void setBattlefield(Battlefield *bf)&lt;/div&gt;&lt;div&gt;&lt;br&gt;&lt;/div&gt;" style="text;html=1;align=left;verticalAlign=middle;whiteSpace=wrap;rounded=0;" vertex="1" parent="QHjCxXVR_3IgXgFIltBH-37">
          <mxGeometry x="10" y="120" width="220" height="30" as="geometry" />
        </mxCell>
        <mxCell id="QHjCxXVR_3IgXgFIltBH-39" value="&lt;span style=&quot;font-weight: 400; text-align: left;&quot;&gt;JumpSemiAutoTrackBot&lt;/span&gt;" style="swimlane;whiteSpace=wrap;html=1;" vertex="1" parent="1">
          <mxGeometry x="1150" y="1080" width="230" height="260" as="geometry" />
        </mxCell>
        <mxCell id="QHjCxXVR_3IgXgFIltBH-40" value="&lt;div&gt;+JumpSemiAutoTrackBot(const string &amp;amp;name, int x,int y)&lt;/div&gt;&lt;div&gt;&amp;nbsp; &amp;nbsp; : Robot(name,x,y),&lt;/div&gt;&lt;div&gt;&amp;nbsp; &amp;nbsp; &amp;nbsp; GenericRobot(name,x,y),&lt;/div&gt;&lt;div&gt;&amp;nbsp; &amp;nbsp; &amp;nbsp; JumpSemiAutoBot(name,x,y),&lt;/div&gt;&lt;div&gt;&amp;nbsp; &amp;nbsp; &amp;nbsp; TrackBot(name,x,y) {}&lt;/div&gt;&lt;div&gt;+void move() override&lt;/div&gt;&lt;div&gt;+void fire() override&lt;/div&gt;&lt;div&gt;+void think() override&lt;/div&gt;&lt;div&gt;+void act() override&lt;/div&gt;&lt;div&gt;+void look(int X,int Y) override&lt;/div&gt;&lt;div&gt;+bool isHit() override&lt;/div&gt;&lt;div&gt;+void setBattlefield(Battlefield *bf)&lt;/div&gt;&lt;div&gt;&lt;br&gt;&lt;/div&gt;" style="text;html=1;align=left;verticalAlign=middle;whiteSpace=wrap;rounded=0;" vertex="1" parent="QHjCxXVR_3IgXgFIltBH-39">
          <mxGeometry x="10" y="120" width="220" height="30" as="geometry" />
        </mxCell>
        <mxCell id="QHjCxXVR_3IgXgFIltBH-41" value="&lt;span style=&quot;font-weight: 400; text-align: left;&quot;&gt;JumpThirtyShotTrackBot&lt;/span&gt;" style="swimlane;whiteSpace=wrap;html=1;" vertex="1" parent="1">
          <mxGeometry x="50" y="1420" width="230" height="260" as="geometry" />
        </mxCell>
        <mxCell id="QHjCxXVR_3IgXgFIltBH-42" value="&lt;div&gt;+JumpThirtyShotTrackBot(const string &amp;amp;name, int x,int y)&lt;/div&gt;&lt;div&gt;&amp;nbsp; &amp;nbsp; : Robot(name,x,y),&lt;/div&gt;&lt;div&gt;&amp;nbsp; &amp;nbsp; &amp;nbsp; GenericRobot(name,x,y),&lt;/div&gt;&lt;div&gt;&amp;nbsp; &amp;nbsp; &amp;nbsp; JumpThirtyShotBot(name,x,y),&lt;/div&gt;&lt;div&gt;&amp;nbsp; &amp;nbsp; &amp;nbsp; TrackBot(name,x,y) {}&lt;/div&gt;&lt;div&gt;+void move() override&lt;/div&gt;&lt;div&gt;+void fire() override&lt;/div&gt;&lt;div&gt;+void think() override&lt;/div&gt;&lt;div&gt;+void act() override&lt;/div&gt;&lt;div&gt;+void look(int X,int Y) override&lt;/div&gt;&lt;div&gt;+bool isHit() override&lt;/div&gt;&lt;div&gt;+void setBattlefield(Battlefield *bf)&lt;/div&gt;&lt;div&gt;&lt;br&gt;&lt;/div&gt;" style="text;html=1;align=left;verticalAlign=middle;whiteSpace=wrap;rounded=0;" vertex="1" parent="QHjCxXVR_3IgXgFIltBH-41">
          <mxGeometry x="10" y="120" width="220" height="30" as="geometry" />
        </mxCell>
        <mxCell id="QHjCxXVR_3IgXgFIltBH-43" value="&lt;span style=&quot;font-weight: 400; text-align: left;&quot;&gt;JumpKnightTrackBot&lt;/span&gt;" style="swimlane;whiteSpace=wrap;html=1;" vertex="1" parent="1">
          <mxGeometry x="340" y="1420" width="230" height="260" as="geometry" />
        </mxCell>
        <mxCell id="QHjCxXVR_3IgXgFIltBH-44" value="&lt;div&gt;+JumpKnightTrackBot(const string &amp;amp;name, int x,int y)&lt;/div&gt;&lt;div&gt;&amp;nbsp; &amp;nbsp; : Robot(name,x,y),&lt;/div&gt;&lt;div&gt;&amp;nbsp; &amp;nbsp; &amp;nbsp; GenericRobot(name,x,y),&lt;/div&gt;&lt;div&gt;&amp;nbsp; &amp;nbsp; &amp;nbsp; JumpKnightBot(name,x,y),&lt;/div&gt;&lt;div&gt;&amp;nbsp; &amp;nbsp; &amp;nbsp; TrackBot(name,x,y) {}&lt;/div&gt;&lt;div&gt;+void move() override&lt;/div&gt;&lt;div&gt;+void fire() override&lt;/div&gt;&lt;div&gt;+void think() override&lt;/div&gt;&lt;div&gt;+void act() override&lt;/div&gt;&lt;div&gt;+void look(int X,int Y) override&lt;/div&gt;&lt;div&gt;+bool isHit() override&lt;/div&gt;&lt;div&gt;+void setBattlefield(Battlefield *bf)&lt;/div&gt;&lt;div&gt;&lt;br&gt;&lt;/div&gt;" style="text;html=1;align=left;verticalAlign=middle;whiteSpace=wrap;rounded=0;" vertex="1" parent="QHjCxXVR_3IgXgFIltBH-43">
          <mxGeometry x="10" y="120" width="220" height="30" as="geometry" />
        </mxCell>
        <mxCell id="QHjCxXVR_3IgXgFIltBH-45" value="&lt;span style=&quot;font-weight: 400; text-align: left;&quot;&gt;JumpQueenTrackBot&lt;/span&gt;" style="swimlane;whiteSpace=wrap;html=1;startSize=23;" vertex="1" parent="1">
          <mxGeometry x="610" y="1420" width="230" height="260" as="geometry" />
        </mxCell>
        <mxCell id="QHjCxXVR_3IgXgFIltBH-46" value="&lt;div&gt;+JumpQueenTrackBot(const string &amp;amp;name, int x,int y)&lt;/div&gt;&lt;div&gt;&amp;nbsp; &amp;nbsp; : Robot(name,x,y),&lt;/div&gt;&lt;div&gt;&amp;nbsp; &amp;nbsp; &amp;nbsp; GenericRobot(name,x,y),&lt;/div&gt;&lt;div&gt;&amp;nbsp; &amp;nbsp; &amp;nbsp; JumpQueenBot(name,x,y),&lt;/div&gt;&lt;div&gt;&amp;nbsp; &amp;nbsp; &amp;nbsp; TrackBot(name,x,y) {}&lt;/div&gt;&lt;div&gt;+void move() override&lt;/div&gt;&lt;div&gt;+void fire() override&lt;/div&gt;&lt;div&gt;+void think() override&lt;/div&gt;&lt;div&gt;+void act() override&lt;/div&gt;&lt;div&gt;+void look(int X,int Y) override&lt;/div&gt;&lt;div&gt;+bool isHit() override&lt;/div&gt;&lt;div&gt;+void setBattlefield(Battlefield *bf)&lt;/div&gt;&lt;div&gt;&lt;br&gt;&lt;/div&gt;" style="text;html=1;align=left;verticalAlign=middle;whiteSpace=wrap;rounded=0;" vertex="1" parent="QHjCxXVR_3IgXgFIltBH-45">
          <mxGeometry x="10" y="120" width="220" height="30" as="geometry" />
        </mxCell>
        <mxCell id="QHjCxXVR_3IgXgFIltBH-47" value="&lt;span style=&quot;font-weight: 400; text-align: left;&quot;&gt;JumpVampireTrackBot&lt;/span&gt;" style="swimlane;whiteSpace=wrap;html=1;" vertex="1" parent="1">
          <mxGeometry x="880" y="1420" width="230" height="260" as="geometry" />
        </mxCell>
        <mxCell id="QHjCxXVR_3IgXgFIltBH-48" value="&lt;div&gt;+JumpVampireTrackBot(const string &amp;amp;name, int x,int y)&lt;/div&gt;&lt;div&gt;&amp;nbsp; &amp;nbsp; : Robot(name,x,y),&lt;/div&gt;&lt;div&gt;&amp;nbsp; &amp;nbsp; &amp;nbsp; GenericRobot(name,x,y),&lt;/div&gt;&lt;div&gt;&amp;nbsp; &amp;nbsp; &amp;nbsp; JumpVampireBot(name,x,y),&lt;/div&gt;&lt;div&gt;&amp;nbsp; &amp;nbsp; &amp;nbsp; TrackBot(name,x,y) {}&lt;/div&gt;&lt;div&gt;+void move() override&lt;/div&gt;&lt;div&gt;+void fire() override&lt;/div&gt;&lt;div&gt;+void think() override&lt;/div&gt;&lt;div&gt;+void act() override&lt;/div&gt;&lt;div&gt;+void look(int X,int Y) override&lt;/div&gt;&lt;div&gt;+bool isHit() override&lt;/div&gt;&lt;div&gt;+void setBattlefield(Battlefield *bf)&lt;/div&gt;&lt;div&gt;&lt;br&gt;&lt;/div&gt;" style="text;html=1;align=left;verticalAlign=middle;whiteSpace=wrap;rounded=0;" vertex="1" parent="QHjCxXVR_3IgXgFIltBH-47">
          <mxGeometry x="10" y="120" width="220" height="30" as="geometry" />
        </mxCell>
      </root>
    </mxGraphModel>
  </diagram>
</mxfile>
